<svg width="3107" height="842" viewBox="0 0 3107 842" fill="none" xmlns="http://www.w3.org/2000/svg">
<path d="M1660.99 662.5H1599.47V326.514H1660.99V662.5ZM1599.47 250.977C1599.47 242.773 1602.21 235.596 1607.67 229.443C1613.37 223.291 1620.89 220.215 1630.23 220.215C1639.57 220.215 1646.98 223.291 1652.45 229.443C1658.15 235.368 1660.99 242.546 1660.99 250.977C1660.99 259.18 1658.15 266.357 1652.45 272.51C1646.98 278.662 1639.57 281.738 1630.23 281.738C1620.89 281.738 1613.37 278.662 1607.67 272.51C1602.21 266.357 1599.47 259.18 1599.47 250.977Z" fill="#b91c1c"/>
<path d="M2696.1 662.5H2634.58V473.486C2634.58 453.434 2629.45 436.23 2619.2 421.875C2609.17 407.52 2595.84 396.696 2579.21 389.404C2562.8 382.113 2544.8 378.467 2525.2 378.467C2503.1 378.467 2483.62 383.822 2466.75 394.531C2449.89 405.013 2436.9 419.368 2427.79 437.598C2418.9 455.599 2414.46 475.081 2414.46 496.045C2414.46 516.553 2419.13 535.579 2428.47 553.125C2437.82 570.671 2450.92 584.684 2467.78 595.166C2484.87 605.42 2503.78 610.547 2524.52 610.547C2556.65 610.547 2584.9 595.166 2609.28 564.404V637.207C2595.16 647.689 2581.37 655.664 2567.93 661.133C2554.48 666.602 2537.96 669.336 2518.37 669.336C2495.12 669.336 2473.25 664.893 2452.74 656.006C2432.46 646.891 2414.69 634.017 2399.42 617.383C2384.38 600.749 2372.87 581.608 2364.9 559.961C2356.92 538.086 2352.94 515.072 2352.94 490.918C2352.94 458.789 2360 429.736 2374.13 403.76C2388.25 377.555 2408.42 356.934 2434.62 341.895C2460.83 326.855 2491.48 319.336 2526.57 319.336C2552.54 319.336 2575.9 323.096 2596.64 330.615C2617.6 338.135 2635.49 348.958 2650.3 363.086C2665.34 376.986 2676.73 393.848 2684.48 413.672C2692.23 433.268 2696.1 455.029 2696.1 478.955V662.5Z" fill="#18181b"/>
<path d="M2937.82 662.5H2876.29V172.363H2937.82V662.5Z" fill="#18181b"/>
<path d="M61.8652 649.5H0V421.18C0 400.672 5.24089 381.531 15.7227 363.758C26.4323 345.984 41.0156 331.971 59.4727 321.717C77.9297 311.463 98.3236 306.336 120.654 306.336C140.479 306.336 159.049 310.438 176.367 318.641C193.685 326.844 207.699 338.693 218.408 354.188C229.346 338.465 243.359 326.616 260.449 318.641C277.539 310.438 296.224 306.336 316.504 306.336C334.049 306.336 350 309.298 364.355 315.223C378.939 321.147 391.585 329.35 402.295 339.832C413.005 350.086 421.436 362.277 427.588 376.404C433.74 390.304 436.816 405.229 436.816 421.18V649.5H375.293V435.193C375.293 413.546 369.71 396.57 358.545 384.266C347.607 371.733 333.138 365.467 315.137 365.467C271.159 365.467 249.17 392.013 249.17 445.105V649.5H187.646V445.105C187.646 392.013 165.771 365.467 122.021 365.467C104.02 365.467 89.4368 371.733 78.2715 384.266C67.334 396.57 61.8652 413.546 61.8652 435.193V649.5Z" fill="#b91c1c"/>
<path d="M934.541 412.977L707.588 538.758L682.295 489.881L848.408 397.596C836.559 385.747 825.28 377.43 814.57 372.645C804.089 367.859 789.847 365.467 771.846 365.467C739.945 365.467 713.626 376.29 692.891 397.938C672.383 419.357 662.129 447.156 662.129 481.336C662.129 515.288 672.383 543.201 692.891 565.076C713.626 586.723 739.945 597.547 771.846 597.547C806.025 597.547 831.66 588.432 848.75 570.203C866.068 551.974 878.031 526.111 884.639 492.615L946.846 500.477C944.339 530.099 935.339 556.759 919.844 580.457C904.577 603.927 883.955 622.498 857.979 636.17C832.002 649.614 803.291 656.336 771.846 656.336C748.831 656.336 726.729 652.12 705.537 643.689C684.346 635.031 665.547 622.84 649.141 607.117C632.962 591.395 620.316 572.938 611.201 551.746C602.087 530.327 597.529 506.857 597.529 481.336C597.529 455.815 601.973 432.459 610.859 411.268C619.974 390.076 632.848 371.505 649.482 355.555C666.117 339.376 684.801 327.186 705.537 318.982C726.501 310.551 748.604 306.336 771.846 306.336C810.127 306.336 842.712 315.678 869.6 334.363C896.715 352.82 918.363 379.025 934.541 412.977Z" fill="#b91c1c"/>
<path d="M2069.32 810.769L2016.04 841.531L1861.37 573.646C1843.37 542.467 1833.52 511.054 1831.83 479.406C1830.33 447.645 1836.91 418.716 1851.58 392.621C1866.13 366.327 1887.52 345.035 1915.73 328.742C1946.12 311.197 1976.77 302.977 2007.66 304.083C2038.76 305.075 2067.39 314.331 2093.55 331.851C2119.72 349.371 2141.06 372.438 2157.58 401.051C2168.86 420.588 2175.93 441.499 2178.8 463.786C2181.56 485.876 2180.28 507.136 2174.98 527.566C2169.75 547.684 2160.72 566.449 2147.88 583.86C2135.04 601.271 2119.35 615.331 2100.8 626.041C2069.82 643.928 2038.46 652.956 2006.72 653.126L1974.42 597.181C1989.8 598.3 2005.37 597.467 2021.13 594.684C2036.88 591.9 2050.68 587.091 2062.52 580.255C2081.47 569.317 2095.75 555.546 2105.37 538.941C2115.19 522.222 2119.71 504.085 2118.95 484.53C2118.07 464.777 2111.93 445.035 2100.54 425.301C2091.88 410.303 2081.65 398.054 2069.85 388.554C2058.05 379.053 2045.29 372.214 2031.56 368.035C2017.72 363.66 2003.42 362.579 1988.64 364.793C1973.76 366.809 1959.31 371.862 1945.3 379.951C1918.46 395.446 1902.09 418.582 1896.18 449.359C1890.26 480.136 1898.3 514.567 1920.29 552.653L2069.32 810.769Z" fill="#18181b"/>
<path d="M1212.38 162.352L1265.66 131.59L1421.86 402.138C1435.31 425.424 1444.17 448.985 1448.46 472.82C1452.64 496.458 1452.23 519.452 1447.24 541.802C1442.34 563.841 1432.97 583.851 1419.15 601.831C1405.52 619.698 1388.25 634.67 1367.33 646.747C1336.74 664.406 1305.9 672.74 1274.81 671.748C1243.91 670.642 1215.44 661.428 1189.39 644.105C1163.22 626.585 1141.88 603.518 1125.36 574.904C1113.96 555.171 1106.89 534.259 1104.14 512.169C1101.27 489.882 1102.58 468.467 1108.09 447.923C1113.68 427.068 1122.65 408.205 1135.01 391.333C1147.57 374.347 1163.22 360.443 1181.97 349.619C1212.75 331.846 1244.27 322.859 1276.52 322.659L1308.82 378.604C1299.49 377.939 1289.44 378.082 1278.68 379.035C1268.11 379.873 1257.86 381.714 1247.92 384.556C1237.87 387.201 1228.8 390.859 1220.71 395.53C1206.31 403.847 1194.65 413.735 1185.74 425.193C1176.83 436.651 1170.6 449.327 1167.04 463.22C1163.49 477.113 1162.97 491.487 1165.5 506.342C1168.22 521.084 1173.85 535.855 1182.4 550.655C1193.68 570.191 1207.81 585.32 1224.78 596.041C1241.96 606.648 1260.55 611.963 1280.56 611.987C1300.46 611.814 1319.58 606.43 1337.94 595.834C1355.5 585.694 1368.78 572.238 1377.78 555.466C1386.86 538.383 1390.36 518.47 1388.28 495.727C1386.09 472.787 1377.64 448.588 1362.94 423.132L1212.38 162.352Z" fill="#b91c1c"/>
</svg>
